<?xml version="1.0" encoding="utf-8"?>
<!-- Generator: Adobe Illustrator 16.0.0, SVG Export Plug-In . SVG Version: 6.00 Build 0)  -->
<!DOCTYPE svg PUBLIC "-//W3C//DTD SVG 1.1//EN" "http://www.w3.org/Graphics/SVG/1.1/DTD/svg11.dtd">
<svg version="1.1" id="Layer_1" xmlns="http://www.w3.org/2000/svg" xmlns:xlink="http://www.w3.org/1999/xlink" x="0px" y="0px"
	 width="283.464px" height="242.988px" viewBox="0 0 283.464 242.988" enable-background="new 0 0 283.464 242.988"
	 xml:space="preserve">
<path opacity="0.6" fill="#99DDEE" enable-background="new    " d="M266.816,115.966l-54.729-94.784
	c-2.547-4.414-7.256-7.133-12.354-7.133H90.29c-5.096,0-9.804,2.719-12.352,7.133l-54.725,94.784c-2.548,4.413-2.548,9.851,0,14.264
	l54.725,94.785c2.548,4.414,7.256,7.132,12.352,7.132h109.444c5.098,0,9.807-2.718,12.354-7.132l54.729-94.785
	C269.363,125.817,269.363,120.378,266.816,115.966z M199.734,23.853c2.463,0,4.459,1.997,4.459,4.46s-1.996,4.46-4.459,4.46
	s-4.459-1.997-4.459-4.46S197.271,23.853,199.734,23.853z M90.289,23.853c2.463,0,4.459,1.997,4.459,4.46s-1.996,4.46-4.459,4.46
	s-4.459-1.997-4.459-4.46S87.826,23.853,90.289,23.853z M35.564,127.558c-2.463,0-4.459-1.997-4.459-4.46
	c0-2.464,1.996-4.46,4.459-4.46c2.464,0,4.459,1.996,4.459,4.46C40.023,125.561,38.028,127.558,35.564,127.558z M90.289,222.343
	c-2.463,0-4.459-1.996-4.459-4.46c0-2.463,1.996-4.46,4.459-4.46s4.459,1.997,4.459,4.46
	C94.748,220.346,92.752,222.343,90.289,222.343z M199.734,222.343c-2.463,0-4.459-1.996-4.459-4.46c0-2.463,1.996-4.46,4.459-4.46
	s4.459,1.997,4.459,4.46C204.193,220.346,202.199,222.343,199.734,222.343z M191.5,203.62H98.525l-46.49-80.521l46.49-80.522H191.5
	l46.49,80.522L191.5,203.62z M254.46,127.558c-2.463,0-4.459-1.997-4.459-4.46c0-2.464,1.996-4.46,4.459-4.46
	s4.459,1.996,4.459,4.46C258.919,125.561,256.923,127.558,254.46,127.558z"/>
<path display="none" opacity="0.6" fill="#4ABB84" enable-background="new    " d="M199.734,14.049
	c-7.875,0-14.263,6.387-14.263,14.264v189.569c0,7.878,6.388,14.264,14.263,14.264c7.88,0,14.264-6.386,14.264-14.264V28.312
	C213.998,20.435,207.614,14.049,199.734,14.049z M199.734,222.343c-2.463,0-4.459-1.996-4.459-4.46c0-2.463,1.996-4.46,4.459-4.46
	s4.459,1.997,4.459,4.46C204.193,220.346,202.199,222.343,199.734,222.343z M199.734,32.773c-2.463,0-4.459-1.997-4.459-4.46
	s1.996-4.46,4.459-4.46s4.459,1.997,4.459,4.46S202.199,32.773,199.734,32.773z"/>
<path display="none" opacity="0.8" fill="#4ABB84" enable-background="new    " d="M199.736,14.049
	c-7.879,0-14.263,6.387-14.263,14.264v80.521h-80.919V28.312c0-7.877-6.387-14.264-14.263-14.264
	c-7.879,0-14.263,6.387-14.263,14.264v189.569c0,7.878,6.384,14.264,14.263,14.264c7.876,0,14.263-6.386,14.263-14.264V137.36
	h80.919v80.521c0,7.878,6.384,14.264,14.263,14.264c7.876,0,14.264-6.386,14.264-14.264V28.312
	C214,20.435,207.612,14.049,199.736,14.049z M90.289,222.343c-2.463,0-4.459-1.996-4.459-4.46c0-2.463,1.996-4.46,4.459-4.46
	s4.459,1.997,4.459,4.46C94.748,220.346,92.752,222.343,90.289,222.343z M90.289,32.773c-2.463,0-4.459-1.997-4.459-4.46
	s1.996-4.46,4.459-4.46s4.459,1.997,4.459,4.46S92.752,32.773,90.289,32.773z M199.734,222.343c-2.463,0-4.459-1.996-4.459-4.46
	c0-2.463,1.996-4.46,4.459-4.46s4.459,1.997,4.459,4.46C204.193,220.346,202.199,222.343,199.734,222.343z M199.734,32.773
	c-2.463,0-4.459-1.997-4.459-4.46s1.996-4.46,4.459-4.46s4.459,1.997,4.459,4.46S202.199,32.773,199.734,32.773z"/>
<path opacity="0.6" fill="#99DDEE" enable-background="new    " d="M90.29,14.049c-7.877,0-14.263,6.387-14.263,14.264v189.569
	c0,7.878,6.386,14.264,14.263,14.264c7.878,0,14.263-6.386,14.263-14.264V28.312C104.553,20.435,98.168,14.049,90.29,14.049z
	 M90.289,222.343c-2.463,0-4.459-1.996-4.459-4.46c0-2.463,1.996-4.46,4.459-4.46s4.459,1.997,4.459,4.46
	C94.748,220.346,92.752,222.343,90.289,222.343z M90.289,32.773c-2.463,0-4.459-1.997-4.459-4.46s1.996-4.46,4.459-4.46
	s4.459,1.997,4.459,4.46S92.752,32.773,90.289,32.773z"/>
<path opacity="0.6" fill="#99DDEE" enable-background="new    " d="M76.027,28.312c0,7.877,6.387,14.263,14.264,14.263h109.444
	c7.878,0,14.264-6.386,14.264-14.263c0-7.879-6.386-14.264-14.264-14.264H90.291C82.414,14.049,76.027,20.433,76.027,28.312z
	 M204.196,28.312c0,2.463-1.996,4.459-4.46,4.459c-2.463,0-4.46-1.996-4.46-4.459s1.997-4.459,4.46-4.459
	C202.2,23.853,204.196,25.849,204.196,28.312z M94.751,28.312c0,2.463-1.997,4.46-4.46,4.46s-4.46-1.997-4.46-4.46
	s1.997-4.459,4.46-4.459S94.751,25.849,94.751,28.312z"/>
<path opacity="0.6" fill="#99DDEE" enable-background="new    " d="M76.027,123.097c0,7.877,6.387,14.263,14.264,14.263h109.444
	c7.878,0,14.264-6.386,14.264-14.263c0-7.879-6.386-14.264-14.264-14.264H90.291C82.414,108.834,76.027,115.219,76.027,123.097z
	 M204.196,123.097c0,2.463-1.996,4.459-4.46,4.459c-2.463,0-4.46-1.996-4.46-4.459s1.997-4.459,4.46-4.459
	C202.2,118.638,204.196,120.635,204.196,123.097z M94.751,123.097c0,2.463-1.997,4.46-4.46,4.46s-4.46-1.997-4.46-4.46
	s1.997-4.459,4.46-4.459S94.751,120.635,94.751,123.097z"/>
<path opacity="0.6" fill="#99DDEE" enable-background="new    " d="M76.027,217.883c0,7.877,6.387,14.263,14.264,14.263h109.444
	c7.878,0,14.264-6.386,14.264-14.263c0-7.879-6.386-14.264-14.264-14.264H90.291C82.414,203.619,76.027,210.004,76.027,217.883z
	 M204.196,217.883c0,2.463-1.996,4.459-4.46,4.459c-2.463,0-4.46-1.996-4.46-4.459s1.997-4.459,4.46-4.459
	C202.2,213.424,204.196,215.42,204.196,217.883z M94.751,217.883c0,2.463-1.997,4.46-4.46,4.46s-4.46-1.997-4.46-4.46
	s1.997-4.459,4.46-4.459S94.751,215.42,94.751,217.883z"/>
<circle fill="#99DDEE" cx="90.29" cy="123.098" r="4.459"/>
<circle fill="#99DDEE" cx="199.735" cy="123.098" r="4.459"/>
</svg>
